# xmcd
# Copyright (C) 1995-1998 Ti Kan
#
# Track frame offsets:
#       150
#       20272
#       35955
#       58371
#       81881
#       99108
#       113069
#       129647
#       153307
#       160779
#       176674
#
# Disc length: 2849 seconds
#
# Revision: 0
# Processed by: cddbd v1.5.2PL0 Copyright (c) Steve Scherf et al.
# Submitted via: CD-Import v1.0
#
DISCID=890b1f0b
DTITLE=Tunng - ...and Then We Saw Land
DYEAR=10
DGENRE=
TTITLE0=Hustle
TTITLE1=It Breaks
TTITLE2=Don't Look Down Or Back
TTITLE3=The Roadside
TTITLE4=October
TTITLE5=Sashimi
TTITLE6=With Whiskey
TTITLE7=By Dusk They Were In The City
TTITLE8=These Winds
TTITLE9=Santiago
TTITLE10=Weekend Away
EXTD=
EXTT0=
EXTT1=
EXTT2=
EXTT3=
EXTT4=
EXTT5=
EXTT6=
EXTT7=
EXTT8=
EXTT9=
EXTT10=
PLAYORDER=
